# xmcd
# Track frame offsets:
# 150
# 17729
# 33474
# 48505
#
# Disc length: 895 seconds
# Revision: 0
# Processed by: cddbd v1.5.2PL0 Copyright (c) Steve Scherf et al.
# Submitted via: VisiTrax 2.10.3.257 - For more info visit www.synapsa.com
#
DISCID=2b037d04
DTITLE=Various Artist - Sony Singles july 2007
DYEAR=2007
DGENRE=
TTITLE0=Paisley, Brad - Onlne
TTITLE1=Kenny Chesney - Never Wanted Nothing More
TTITLE2=Brooks and Dunn - Proud of the House I built
TTITLE3=McGraw, Tim and Faith Hill - I Need You
EXTD=
EXTT0=
EXTT1=
EXTT2=
EXTT3=
PLAYORDER=
